<svg width="380" height="298" viewBox="0 0 380 298" fill="none" xmlns="http://www.w3.org/2000/svg">
<path d="M24.69 260.26V266.24H24.33L23.96 265.4C22.86 262.93 20.18 261.1 17.61 261.1H4.48C4.48 261.1 6.03001 261.24 6.24001 262.93V277.14H13.63C15.73 277.14 17.78 276.14 18.41 274.73L18.62 274.31H19.04V281.28H18.62L18.41 280.87C17.73 279.24 15.74 278.09 13.63 278.09H4.46001C4.46001 278.09 6.09001 278.23 6.24001 280.06V293.3C6.24001 294.93 7.39001 296.13 9.07001 296.24L9.7 296.3V296.87H0.0500031V296.3L0.470001 296.24C1.88 296.14 2.88 294.93 2.88 293.3V263.88C2.88 262.26 1.88 261.05 0.470001 260.94L0.0500031 260.89L0 260.26H24.69Z" fill="black"/>
<path d="M64.8799 278.61C64.8799 288.3 58.2399 297.14 46.5199 297.17H46.4699C34.7499 297.14 28.1099 288.3 28.1099 278.61C28.1099 268.92 34.7499 260.08 46.4699 260.04H46.5199C58.2399 260.08 64.8799 268.92 64.8799 278.61ZM61.1599 278.61C61.1599 275.26 60.4599 272.02 59.1199 269.24C59.0199 269.02 59.0999 268.76 59.3199 268.66L59.5999 268.53C59.8399 268.42 59.9299 268.11 59.7799 267.9C57.6599 264.76 54.4299 262.38 50.2299 261.42C50.2099 261.41 50.1699 261.4 50.1499 261.4C49.0299 261.1 47.8199 260.94 46.5299 260.94H46.4799C41.6399 260.94 37.8899 263.21 35.3899 266.69C33.0699 269.91 31.8399 274.17 31.8399 278.62C31.8399 281.97 32.5399 285.21 33.8799 287.99C33.9799 288.21 33.8999 288.47 33.6799 288.57L33.3999 288.7C33.1599 288.81 33.0699 289.12 33.2199 289.33C35.3399 292.47 38.5699 294.85 42.7699 295.81C42.7899 295.82 42.8299 295.83 42.8499 295.83C43.9699 296.13 45.1799 296.29 46.4699 296.29H46.5199C51.3599 296.29 55.1099 294.02 57.6099 290.54C59.9299 287.32 61.1599 283.05 61.1599 278.61Z" fill="black"/>
<path d="M103.25 296.02V296.7H101.99C98.6299 296.7 97.9999 296.28 93.3299 290.88C88.6099 285.38 84.8899 281.07 83.4199 279.29H77.4399L75.6599 279.31C75.6599 279.31 77.2899 279.45 77.4399 281.28V293.24C77.4399 294.86 78.4299 296.07 79.8499 296.18L80.2699 296.23V296.81H71.1899V296.23L71.6099 296.18C73.0299 296.08 74.0199 294.87 74.0199 293.24V263.82C74.0199 262.19 73.0299 260.99 71.6099 260.88L71.1899 260.82V260.35L85.8699 260.19C92.4799 260.19 97.2999 264.13 97.2999 269.58C97.2999 274.18 93.5899 277.73 88.0199 278.82C87.9899 278.82 87.9599 278.83 87.9299 278.83C87.8199 278.85 87.6999 278.88 87.5699 278.9C87.4699 278.92 87.3699 278.94 87.2599 278.95C86.3899 279.07 85.3499 279.15 85.3499 279.15C87.2899 279.2 88.8899 281.02 89.0799 281.24C89.0799 281.25 89.0899 281.25 89.0899 281.25C89.0899 281.25 89.0999 281.25 89.0999 281.26C91.0699 283.62 94.1499 287.24 97.7899 291.51C101.57 295.87 101.62 296.02 103.25 296.02ZM84.9099 278.43C90.4199 278.43 93.6999 274.73 93.6999 269.64C93.6999 264.66 90.3899 261.04 85.8299 261.04H75.6099C75.6099 261.04 77.2099 261.19 77.3899 262.96V278.4L84.8899 278.43H84.9099V278.43Z" fill="black"/>
<path d="M161.73 260.3L161.72 260.31L161.57 260.88L161.15 260.93C160.55 260.97 160.01 261.18 159.57 261.53C158.82 262.12 158.37 263.1 158.37 264.29V286.85C158.37 290.69 156.7 293.85 153.05 295.59C151.42 296.38 149.38 296.88 146.92 297.03C146.4 297.06 145.87 297.08 145.31 297.08C135.87 297.08 131.72 292.1 131.72 285.17V263.83C131.72 262.2 130.72 261 129.31 260.89L128.89 260.83V260.26H137.96V260.83L137.87 260.84H132.27L132.69 260.89C134.11 260.99 135.1 262.2 135.1 263.83V285.18C135.1 285.61 135.12 286.04 135.15 286.46C135.15 286.48 135.15 286.5 135.16 286.52C135.28 289.35 136.2 291.75 138.04 293.42C138.05 293.43 138.06 293.44 138.07 293.44C139.82 295.01 142.39 295.92 145.89 295.92C146.49 295.92 147.07 295.9 147.62 295.85C154.43 295.32 157.49 291.58 157.49 286.53V264.29C157.49 262.4 156.28 261.04 154.55 260.93L154.07 260.88V260.3H161.73Z" fill="black"/>
<path d="M193.65 287.52C193.65 293.13 189.03 297.17 182.74 297.17C177.92 297.17 172.46 296.02 169.68 294.39V288.57H170.15C170.36 288.99 170.57 289.62 170.78 290.04C172.04 292.77 174.77 295.07 177.39 295.76C179.23 296.07 181.06 296.28 182.74 296.28C187.72 296.28 191.34 293.13 191.34 288.83C191.34 285.37 186.78 281.59 180.54 279.86C174.56 278.18 170.21 274.14 170.21 270.26C170.21 264.33 174.83 260.03 181.12 260.03C184.48 260.03 188.93 261.18 191.71 262.81V268.63L191.34 268.68L189.77 265.22C189.09 263.75 187.62 262.39 186.15 261.81C184.31 261.23 182.48 260.92 181.06 260.92C176.13 260.92 172.51 264.28 172.51 269C172.51 272.15 176.97 275.61 183.1 277.34C189.25 279.08 193.65 283.33 193.65 287.52Z" fill="black"/>
<path d="M246.76 260.26V266.24H246.4L246.03 265.4C244.93 262.93 242.25 261.1 239.68 261.1H226.55C226.55 261.1 228.1 261.24 228.31 262.93V277.14H235.7C237.8 277.14 239.85 276.14 240.48 274.73L240.69 274.31H241.11V281.28H240.69L240.48 280.87C239.8 279.24 237.81 278.09 235.7 278.09H226.53C226.53 278.09 228.16 278.23 228.31 280.06V293.3C228.31 294.93 229.46 296.13 231.14 296.24L231.77 296.3V296.87H222.12V296.3L222.54 296.24C223.95 296.14 224.95 294.93 224.95 293.3V263.88C224.95 262.26 223.95 261.05 222.54 260.94L222.12 260.89L222.07 260.26H246.76Z" fill="black"/>
<path d="M260.72 263.87V293.29C260.72 294.92 261.72 296.12 263.13 296.23L263.55 296.28V296.86H254.48V296.28L254.9 296.23C256.32 296.13 257.31 294.92 257.31 293.29V263.87C257.31 262.25 256.31 261.04 254.9 260.93L254.48 260.88V260.3H263.55V260.88L263.13 260.93C261.71 261.04 260.72 262.25 260.72 263.87Z" fill="black"/>
<path d="M298.4 290.62C298.14 292.35 297.72 294.76 297.41 296.49L297.36 296.85H274.02V296.28L274.44 296.22C275.86 296.12 276.86 294.91 276.86 293.28V263.86C276.86 262.24 275.86 261.03 274.44 260.92L274.02 260.87V260.29H283.1V260.87L283.05 260.92L282.63 260.98C281.21 261.08 280.22 262.29 280.22 263.92V294.1C280.07 295.93 278.44 296.07 278.44 296.07H280.22V296.08H290.92C293.17 296.08 295.64 294.4 296.84 292.14L297.78 290.36C297.77 290.36 298.19 290.52 298.4 290.62Z" fill="black"/>
<path d="M347.75 296.28V296.86H338.73V296.23L338.89 296.28L339.31 296.23C340.57 296.13 341.51 295.08 341.62 293.66L340.52 262.93L326.46 297.13H325.62C320.85 286.27 316.13 275.37 311.35 264.46L310.3 292.68C310.25 294.67 311.61 296.14 313.6 296.25L314.33 296.3V296.88H306.31V296.3L306.73 296.25C308.09 296.15 309.09 294.89 309.19 293.31L310.29 263.47C310.19 262.11 309.24 261.06 307.98 260.95L307.56 260.9V260.32H313.01L327.09 293.09L327.14 293.14L340.3 260.31H346.12V260.89L345.75 260.94C344.39 261.04 343.44 262.25 343.5 263.88L344.81 293.57C344.97 295.04 346.02 296.14 347.33 296.24L347.75 296.28Z" fill="black"/>
<path d="M379.66 287.52C379.66 293.13 375.04 297.17 368.75 297.17C363.93 297.17 358.47 296.02 355.69 294.39V288.57H356.16C356.37 288.99 356.58 289.62 356.79 290.04C358.05 292.77 360.78 295.07 363.4 295.76C365.24 296.07 367.07 296.28 368.75 296.28C373.73 296.28 377.35 293.13 377.35 288.83C377.35 285.37 372.79 281.59 366.55 279.86C360.57 278.18 356.22 274.14 356.22 270.26C356.22 264.33 360.84 260.03 367.13 260.03C370.49 260.03 374.94 261.18 377.72 262.81V268.63L377.35 268.68L375.78 265.22C375.1 263.75 373.63 262.39 372.16 261.81C370.32 261.23 368.49 260.92 367.07 260.92C362.14 260.92 358.52 264.28 358.52 269C358.52 272.15 362.98 275.61 369.11 277.34C375.26 279.08 379.66 283.33 379.66 287.52Z" fill="black"/>
<path d="M250.95 90.2899L263.35 86.0299C263.37 86.5199 264.37 87.2199 265.1 87.4299C274.21 90.0499 283.32 92.6699 292.51 95.1099C294.88 95.7399 295.87 96.5699 295.52 98.4899C295.32 99.5599 295.48 100.68 295.48 102.03C289.44 101.64 283.5 102.96 277.67 100.54C277.59 101.37 277.49 101.95 277.49 102.54C277.48 111.43 277.44 120.33 277.53 129.22C277.54 130.19 277.98 131.26 278.63 132.09C280.86 134.92 283.27 137.65 285.76 140.6C284.62 140.73 283.76 140.95 282.94 140.9C275.89 140.44 271.46 144.13 266.6 147.08C250.52 156.83 234.5 166.62 218.46 176.4C217.83 176.78 217.26 177.22 216.38 177.83C234.57 188.94 252.66 199.98 270.82 211.07C266.5 213.27 261.7 213.07 257.73 210.65C242.12 201.11 226.52 191.56 210.91 182.02C210.7 181.89 210.45 181.81 210.02 181.6C206.79 183.56 203.49 185.55 199.86 187.75C229.18 205.62 258.38 223.42 287.71 241.3C283.46 245.66 275.37 246.23 269.58 242.69C243.77 226.93 217.97 211.17 192.22 195.35C190.34 194.2 189.23 194.16 187.29 195.36C171.68 205 155.93 214.51 140.25 224.09C130.27 230.19 120.32 236.32 110.4 242.47C106.11 245.13 101.31 245.65 96.2499 244.42C94.5299 244 93.1299 242.78 91.1599 241.7C120.98 223.52 150.22 205.7 179.64 187.77C176.84 186.05 174.27 184.36 171.52 182.87C170.95 182.56 169.47 182.71 168.84 183.08C153.73 192.2 138.68 201.39 123.63 210.56C119.5 213.08 115.53 213.28 110.48 211.05C128.34 200.16 146.1 189.34 164.13 178.34C161.49 176.71 158.96 175.12 156.4 173.56C139.52 163.27 122.67 152.94 105.67 142.76C103.99 141.75 101.38 141.65 99.1599 141.23C97.6999 140.95 96.1699 140.86 94.3599 140.65C96.6899 137.84 98.9399 135.2 101.09 132.51C101.58 131.89 102.04 131.13 102.05 130.43C102.11 120.7 102.08 110.98 102.07 101.25C102.07 101.12 101.96 100.99 101.79 100.61C96.2699 102.95 90.3299 101.65 84.1199 102.05C84.1199 100.16 83.9399 98.4399 84.2199 96.7699C84.3099 96.2299 85.5199 95.6199 86.3699 95.3799C95.5799 92.7699 104.8 90.1899 114.06 87.6799C115.73 87.2299 116.48 86.6599 116.41 85.1899L128.61 87.2799C128.61 97.6799 128.61 108.02 128.61 118.35C169.52 121.37 210.22 121.09 250.92 118.32C250.95 108.95 250.95 99.6199 250.95 90.2899ZM184.36 166.04C184.14 165.83 184 165.64 183.8 165.52C172.85 158.84 161.9 152.16 150.93 145.49C150.53 145.25 150.03 144.98 149.55 144.95C142.48 144.55 135.41 144.19 127.69 143.78C143.54 153.44 158.88 162.79 174.27 172.16C177.75 170.04 181.05 168.04 184.36 166.04ZM163.86 145.19C163.81 145.36 163.76 145.54 163.72 145.71C172.7 151.18 181.68 156.66 190.71 162.16C200.07 156.45 209.24 150.85 218.51 145.19C200.13 145.19 182 145.19 163.86 145.19ZM196.91 165.93C200.07 167.87 203.07 169.72 206.15 171.61C221.5 162.25 236.79 152.94 252.55 143.33C251.25 143.33 250.57 143.3 249.9 143.33C245.08 143.58 240.24 143.73 235.44 144.16C233.61 144.32 231.63 144.86 230.15 145.69C226.01 147.99 222.1 150.54 218.09 152.98C211.09 157.28 204.07 161.56 196.91 165.93ZM116.27 96.1399C115.36 96.4099 114.73 96.6899 114.06 96.7799C111.1 97.1799 110.53 98.5799 110.6 100.74C110.79 106.9 110.66 113.06 110.67 119.22C110.67 119.71 110.78 120.2 110.82 120.56C112.45 119.31 114.02 118.11 116.28 116.39C116.27 110.35 116.27 103.38 116.27 96.1399ZM263.44 96.1699C263.44 103.4 263.44 110.42 263.44 117.67C266.73 116.56 267.1 118.96 268.94 120.34C268.94 119.35 268.94 118.76 268.94 118.17C268.94 112.76 268.94 107.35 268.94 101.94C268.94 97.7899 268.94 97.7899 263.44 96.1699ZM189.79 181.61C193.18 179.52 196.47 177.48 199.93 175.35C196.62 173.35 193.68 171.57 190.65 169.74C187.23 171.83 183.94 173.85 180.52 175.94C183.69 177.88 186.69 179.72 189.79 181.61Z" fill="black"/>
<path d="M161.48 20.5V44.41H182.32L171.05 65.08H161.48V114.61H140.3V0H188.13L176.86 20.5H161.48Z" fill="black"/>
<path d="M215.97 96.68H216.65C217.5 96.68 218.53 95.83 218.53 95.31V0H239.37V97.19C239.37 107.27 230.32 115.47 220.58 115.47H212.04C201.62 115.47 193.08 107.27 193.08 97.19V0H213.58V95.31C213.58 95.83 215.11 96.68 215.97 96.68Z" fill="black"/>
</svg>
