<svg width="138" height="81" viewBox="0 0 138 81" fill="none" xmlns="http://www.w3.org/2000/svg">
<path d="M2.52 54.216V27H16.236L15.804 31.248H7.812V38.304H13.464V42.768H7.812V53.784L2.52 54.216ZM26.9266 54.504C24.2386 54.504 22.2226 53.64 20.8786 51.912C19.5346 50.184 18.8626 47.916 18.8626 45.108V27.216L24.1546 27V45.54C24.1546 46.476 24.2026 47.268 24.2986 47.916C24.4186 48.564 24.6946 49.116 25.1266 49.572C25.5586 50.028 26.2186 50.256 27.1066 50.256C27.9466 50.256 28.5586 50.028 28.9426 49.572C29.3506 49.092 29.6026 48.54 29.6986 47.916C29.7946 47.268 29.8426 46.452 29.8426 45.468V27.432L34.6666 27V44.496C34.6666 47.04 34.1626 49.344 33.1546 51.408C32.1706 53.472 30.0946 54.504 26.9266 54.504ZM48.3286 54.216V27H62.0446L61.6126 31.248H53.6206V38.304H59.2726V42.768H53.6206V53.784L48.3286 54.216ZM64.8872 54.216V27.432L70.1792 27V53.784L64.8872 54.216ZM75.2231 54V27.432L80.4791 27V49.788H89.3351L88.7951 54H75.2231ZM110.17 54.216V33.948L105.13 54H101.89L96.4541 33.876V53.784L92.0981 54V27.252L99.8381 27.036L104.302 43.74L108.586 27.648L115.642 27.216V53.784L110.17 54.216ZM127.808 54.504C125.624 54.504 123.776 53.904 122.264 52.704C120.776 51.48 119.684 49.848 118.988 47.808L123.452 45.72L123.884 46.44C124.58 47.64 125.24 48.576 125.864 49.248C126.512 49.92 127.316 50.256 128.276 50.256C128.9 50.256 129.452 49.956 129.932 49.356C130.436 48.756 130.688 48.096 130.688 47.376C130.688 46.704 130.52 46.092 130.184 45.54C129.848 44.988 129.416 44.544 128.888 44.208L124.172 41.4C122.804 40.632 121.712 39.66 120.896 38.484C120.08 37.308 119.672 35.988 119.672 34.524C119.672 32.964 120.032 31.572 120.752 30.348C121.496 29.124 122.492 28.176 123.74 27.504C125.012 26.832 126.44 26.496 128.024 26.496C129.872 26.496 131.444 26.952 132.74 27.864C134.036 28.776 134.996 30.132 135.62 31.932L131.156 33.948C131.06 33.756 130.856 33.324 130.544 32.652C130.232 31.98 129.848 31.5 129.392 31.212C128.96 30.9 128.42 30.744 127.772 30.744C126.98 30.744 126.368 30.996 125.936 31.5C125.528 32.004 125.324 32.652 125.324 33.444C125.324 34.02 125.48 34.548 125.792 35.028C126.128 35.484 126.524 35.844 126.98 36.108L131.336 38.664C134.552 40.488 136.244 42.888 136.412 45.864C136.412 47.568 136.028 49.08 135.26 50.4C134.516 51.696 133.484 52.704 132.164 53.424C130.868 54.144 129.416 54.504 127.808 54.504Z" fill="white"/>
<path fill-rule="evenodd" clip-rule="evenodd" d="M28 61H36V73H101V61H109V73V81H101H36H28V73V61Z" fill="#144DE1"/>
<path fill-rule="evenodd" clip-rule="evenodd" d="M109 20L101 20L101 8L36 7.99999L36 20L28 20L28 7.99999L28 -7.08124e-06L36 -6.38186e-06L101 -6.99382e-07L109 0L109 8L109 20Z" fill="#144DE1"/>
</svg>
